HIERARCHY
ROOT ui
{
	 OFFSET 0 0 0
	 CHANNELS 3 XPosition YPosition Z Position
	 EndSite
	 {
	 OFFSET 0 -1 0
	 }
}
ROOT li
{
	 OFFSET 0 0 0
	 CHANNELS 3 XPosition YPosition Z Position
	 EndSite
	 {
	 OFFSET 0 -1 0
	 }
}
ROOT ul
{
	 OFFSET 0 0 0
	 CHANNELS 3 XPosition YPosition Z Position
	 EndSite
	 {
	 OFFSET 0 -1 0
	 }
}
ROOT ll
{
	 OFFSET 0 0 0
	 CHANNELS 3 XPosition YPosition Z Position
	 EndSite
	 {
	 OFFSET 0 -1 0
	 }
}
ROOT tt
{
	 OFFSET 0 0 0
	 CHANNELS 3 XPosition YPosition Z Position
	 EndSite
	 {
	 OFFSET 0 -1 0
	 }
}
ROOT tb
{
	 OFFSET 0 0 0
	 CHANNELS 3 XPosition YPosition Z Position
	 EndSite
	 {
	 OFFSET 0 -1 0
	 }
}
ROOT td
{
	 OFFSET 0 0 0
	 CHANNELS 3 XPosition YPosition Z Position
	 EndSite
	 {
	 OFFSET 0 -1 0
	 }
}
ROOT v
{
	 OFFSET 0 0 0
	 CHANNELS 3 XPosition YPosition Z Position
	 EndSite
	 {
	 OFFSET 0 -1 0
	 }
}
ROOT bn
{
	 OFFSET 0 0 0
	 CHANNELS 3 XPosition YPosition Z Position
	 EndSite
	 {
	 OFFSET 0 -1 0
	 }
}
MOTION
Frames: 32
Frame Time: 0.002
-0.0011016470193862915	5.37542998790741E-4	0		0.5112762756347656	-2.366328369140625	0		-1.0779892578125	-0.03758182144165039	0		-0.6283446655273438	-2.33527734375	0		1.06794775390625	-0.6023076782226563	0		2.879889892578125	-0.08068025207519532	0		4.52100341796875	0.18105755615234376	0		5.56977685546875	0.135246826171875	0		-0.22408834838867187	5.90566259765625	0		
0.018478002548217774	0.004003728866577148	0		0.540442626953125	-2.364890380859375	0		-1.0744150390625	-0.03510840225219727	0		-0.6940250854492187	-2.324412109375	0		1.0257149658203124	-0.5964308471679688	0		2.88351171875	-0.07516268157958984	0		4.52457421875	0.18800804138183594	0		5.5871435546875	0.11763878631591797	0		-0.21195683288574219	5.915177734375	0		
-0.003946655035018921	0.00824059009552002	0		0.5425774536132812	-2.362951904296875	0		-1.0718338623046875	-0.031596786499023435	0		-0.6240370483398437	-2.33100537109375	0		1.07032373046875	-0.599140869140625	0		2.883031494140625	-0.07459528350830077	0		4.51992041015625	0.1830633544921875	0		5.57554931640625	0.13928765869140625	0		-0.36150299072265624	5.88560595703125	0		
0.02238511085510254	-0.00139056396484375	0		0.5317679443359375	-2.35578125	0		-1.075399169921875	-0.035953849792480466	0		-0.66097412109375	-2.3306533203125	0		1.06996484375	-0.5990372924804688	0		2.887422119140625	-0.08114385223388672	0		4.51526806640625	0.17806709289550782	0		5.58234912109375	0.1409923858642578	0		-0.23103230285644533	5.90602392578125	0		
-0.008007749557495118	0.004994217872619629	0		0.5297454223632813	-2.35876953125	0		-1.084014892578125	-0.043199794769287106	0		-0.6280426025390625	-2.336522705078125	0		1.0665455322265625	-0.601886474609375	0		2.861976318359375	-0.07819849395751953	0		4.5139697265625	0.1929588165283203	0		5.57488525390625	0.14319181823730467	0		-0.2318871307373047	5.904810546875	0		
-0.006647933959960937	-0.0031749730110168456	0		0.513640869140625	-2.3645146484375	0		-1.0804378662109375	-0.03963218688964844	0		-0.6629935302734375	-2.33318505859375	0		1.0661717529296875	-0.6017957763671875	0		2.864578125	-0.07278178405761719	0		4.51828955078125	0.18569122314453124	0		5.58582666015625	0.1254529571533203	0		-0.23265017700195312	5.9036103515625	0		
-0.0010424360036849975	0.0025958220958709716	0		0.5426349487304688	-2.363034423828125	0		-1.076876220703125	-0.03703609848022461	0		-0.6569168090820312	-2.32654248046875	0		1.03872802734375	-0.6052507934570313	0		2.89902197265625	-0.07694515228271484	0		4.519841796875	0.19141246032714843	0		5.58131396484375	0.14110545349121092	0		-0.3515196533203125	5.8914404296875	0		
-0.0015329229831695557	0.0024803109169006347	0		0.5186546630859376	-2.35764794921875	0		-1.07429248046875	-0.03339493560791015	0		-0.6549579467773438	-2.32480908203125	0		1.0715272216796874	-0.5947399291992187	0		2.880615966796875	-0.07223932647705078	0		4.52723193359375	0.18696951293945313	0		5.5851669921875	0.1285873718261719	0		-0.3691943054199219	5.88353369140625	0		
-0.005062860012054443	-5.760070085525513E-4	0		0.5394041137695312	-2.367020751953125	0		-1.0818829345703125	-0.04055789566040039	0		-0.6611765747070313	-2.331920654296875	0		1.068077392578125	-0.5986218872070312	0		2.863150146484375	-0.07159384155273438	0		4.51672314453125	0.18776515197753907	0		5.580697265625	0.14914669799804686	0		-0.23727958679199218	5.9031376953125	0		
-0.005527928829193115	-6.757500171661377E-4	0		0.5392870483398438	-2.367040283203125	0		-1.082342041015625	-0.04081601715087891	0		-0.6283862915039062	-2.33766357421875	0		1.0646510009765624	-0.6015136108398438	0		2.881477294921875	-0.0845851593017578	0		4.51213134765625	0.1823976593017578	0		5.57743408203125	0.13664833068847657	0		-0.23861296081542968	5.90300390625	0		
0.011040817260742188	-4.871099814772606E-5	0		0.537107177734375	-2.370027587890625	0		-1.086847412109375	-0.044985843658447267	0		-0.6634668579101562	-2.334263916015625	0		1.064285400390625	-0.60146435546875	0		2.862259521484375	-0.07098344421386718	0		4.5088759765625	0.19595283508300781	0		5.570689453125	0.13454634094238282	0		-0.23984324645996094	5.9028798828125	0		
-0.006393753051757813	-8.560559749603272E-4	0		0.4901893615722656	-2.35628369140625	0		-1.0791492919921875	-0.03833428573608398	0		-0.6486749877929687	-2.338674560546875	0		1.066985595703125	-0.5984727783203125	0		2.87884521484375	-0.07100470733642578	0		4.51531640625	0.18929322814941407	0		5.58394189453125	0.1332645721435547	0		-0.36013504028320314	5.8937099609375	0		
0.018196142196655274	-0.002343951940536499	0		0.541948486328125	-2.363155517578125	0		-1.0795357666015626	-0.038532211303710935	0		-0.6596821899414063	-2.3306484375	0		1.0278106689453126	-0.5888075561523437	0		2.86735009765625	-0.07759645080566406	0		4.5149052734375	0.18969845581054687	0		5.57952392578125	0.15334368896484374	0		-0.24199826049804687	5.90265673828125	0		
-0.012059880256652831	0.004063807010650635	0		0.5138405151367188	-2.361728515625	0		-1.0798890380859374	-0.038714157104492185	0		-0.6268818969726563	-2.335321533203125	0		1.066360595703125	-0.5984130859375	0		2.88299853515625	-0.0776536636352539	0		4.51452978515625	0.1900592041015625	0		5.5792802734375	0.15413069152832032	0		-0.2429278106689453	5.90255615234375	0		
0.017519279479980467	-0.0024912700653076172	0		0.5365952758789062	-2.370125244140625	0		-1.0883172607421876	-0.045752689361572264	0		-0.6639933471679688	-2.33485595703125	0		1.066092529296875	-0.598393310546875	0		2.860800048828125	-0.07012299346923828	0		4.51419287109375	0.19038035583496093	0		5.57611669921875	0.14110585021972658	0		-0.2437640380859375	5.90246142578125	0		
-0.007743111133575439	-0.001161054015159607	0		0.5125829467773437	-2.3647705078125	0		-1.084531982421875	-0.041972927093505856	0		-0.6640913696289062	-2.334978515625	0		1.0658577880859375	-0.598379638671875	0		2.8574443359375	-0.07491954803466797	0		4.513896484375	0.19066537475585937	0		5.565318359375	0.15598309326171875	0		-0.24352635192871094	5.9013564453125	0		
0.01699582862854004	-0.002626373052597046	0		0.5415358276367187	-2.36326318359375	0		-1.0648372802734376	-0.046434352874755856	0		-0.6851819458007813	-2.3357587890625	0		1.0386136474609375	-0.6009423217773437	0		2.9010908203125	-0.08248400115966797	0		4.51084765625	0.20396240234375	0		5.589955078125	0.13135395812988282	0		-0.3613925476074219	5.88913330078125	0		
-0.0051404681205749515	0.0016576550006866455	0		0.543529296875	-2.360325927734375	0		-1.077861083984375	-0.03536181640625	0		-0.6231660766601562	-2.33184912109375	0		1.0716031494140625	-0.591465576171875	0		2.87708642578125	-0.06998773193359376	0		4.51342626953125	0.19113563537597655	0		5.57143359375	0.15676992797851563	0		-0.3790745849609375	5.8823154296875	0		
0.011708711624145508	0.0023268280029296877	0		0.5285155029296875	-2.35912109375	0		-1.081086181640625	-0.03943688201904297	0		-0.662225830078125	-2.3333310546875	0		1.0653624267578126	-0.5983718872070313	0		2.856849609375	-0.07457173156738281	0		4.5083779296875	0.19940550231933593	0		5.57551171875	0.14319361877441406	0		-0.24525558471679687	5.901115234375	0		
-0.00848049259185791	-0.0014170759916305542	0		0.5383801879882812	-2.367309814453125	0		-1.053326416015625	-0.046991050720214846	0		-0.5943538818359375	-2.34149267578125	0		1.0622174072265624	-0.6013294677734375	0		2.871581298828125	-0.08372025299072265	0		4.5131123046875	0.1914984130859375	0		5.5783681640625	0.15730387878417967	0		-0.24666954040527345	5.90205908203125	0		
-0.008576151847839355	-0.0014745099544525146	0		0.5363490600585937	-2.370309814453125	0		-1.0813067626953126	-0.03965950012207031	0		-0.6992011108398437	-2.331932373046875	0		1.0621500244140625	-0.6013365478515625	0		2.87850439453125	-0.08275201416015625	0		4.5130078125	0.19165379333496094	0		5.5824609375	0.13846131896972655	0		-0.23190377807617188	5.91075390625	0		
-0.013562012672424316	0.0035479440689086916	0		0.5414976196289063	-2.363419921875	0		-1.0754486083984376	-0.04485507202148437	0		-0.6621832275390624	-2.333596435546875	0		1.07696923828125	-0.610577880859375	0		2.85964892578125	-0.06938444519042969	0		4.51702783203125	0.197734619140625	0		5.585361328125	0.15251516723632813	0		-0.365556640625	5.89077099609375	0		
0.020368589401245116	9.647780060768128E-4	0		0.5415624389648438	-2.363449951171875	0		-1.0783399658203126	-0.035906986236572264	0		-0.6600886840820313	-2.3317080078125	0		1.0651494140625	-0.59839990234375	0		2.881506103515625	-0.07665982818603516	0		4.512892578125	0.19193379211425782	0		5.57824365234375	0.15828030395507814	0		-0.2476483154296875	5.901861328125	0		
0.016303857803344726	-0.00302276611328125	0		0.5307646484375	-2.35630908203125	0		-1.0494693603515626	-0.04445145416259766	0		-0.629110595703125	-2.33926708984375	0		1.0651705322265625	-0.5984081420898437	0		2.881506103515625	-0.07659510040283203	0		4.5128818359375	0.19206407165527345	0		5.57824560546875	0.15857315063476562	0		-0.247888427734375	5.90180078125	0		
-0.013572876930236816	0.0033925020694732665	0		0.5288367919921875	-2.359306884765625	0		-1.08948291015625	-0.046921581268310544	0		-0.6639420166015625	-2.335799072265625	0		1.0652203369140625	-0.5984166259765625	0		2.872567626953125	-0.07439326477050781	0		4.52289990234375	0.19203507995605468	0		5.57826904296875	0.1588570098876953	0		-0.24809245300292967	5.90174072265625	0		
0.016382848739624024	-0.0031212899684906004	0		0.5388536376953125	-2.367490478515625	0		-1.085367431640625	-0.04307499694824219	0		-0.6638011474609375	-2.3358740234375	0		1.0172855834960937	-0.5986829223632812	0		2.856624755859375	-0.07408638000488281	0		4.502962890625	0.1934663543701172	0		5.564759765625	0.1596396026611328	0		-0.23312654113769532	5.9104482421875	0		
-0.008524974822998048	-0.0017846870422363282	0		0.4901734924316406	-2.356765380859375	0		-1.0653563232421874	-0.04747261428833008	0		-0.6595813598632813	-2.332010009765625	0		1.08025	-0.6076676635742188	0		2.9165859375	-0.08195806884765625	0		4.52099609375	0.19130235290527345	0		5.58546533203125	0.15393267822265624	0		-0.35143878173828125	5.90021337890625	0		
0.020607595443725587	7.175430059432983E-4	0		0.5442906494140625	-2.360630615234375	0		-1.0671260986328126	-0.038529422760009764	0		-0.6573663940429687	-2.329114013671875	0		1.0325509033203124	-0.5949432373046875	0		2.859869873046875	-0.06903258514404297	0		4.5123115234375	0.20654251098632812	0		5.5754716796875	0.14243312072753905	0		-0.3818387145996094	5.88161572265625	0		
-0.008335726737976074	-0.0018864279985427855	0		0.5133903198242188	-2.365187255859375	0		-1.0810546875	-0.040397998809814456	0		-0.6612708740234375	-2.334123291015625	0		1.0656187744140626	-0.5984689331054688	0		2.87289306640625	-0.07419367980957031	0		4.50422119140625	0.19475654602050782	0		5.57850830078125	0.15983184814453125	0		-0.24859986877441406	5.90150537109375	0		
-0.008234042167663574	-0.0019377670288085937	0		0.5296484375	-2.35947021484375	0		-1.0849974365234376	-0.04341765594482422	0		-0.6631343383789062	-2.336161865234375	0		1.0626915283203124	-0.6014437866210938	0		2.85486083984375	-0.08288697052001953	0		4.51328564453125	0.19269378662109374	0		5.5756435546875	0.14627713012695312	0		-0.24866360473632812	5.901447265625	0		
-0.01612090492248535	-8.663570284843444E-4	0		0.5038523559570313	-2.356110107421875	0		-1.074931396484375	-0.045648197174072265	0		-0.66297998046875	-2.336229248046875	0		1.071756103515625	-0.6046060180664062	0		2.87897216796875	-0.08223541259765625	0		4.51337744140625	0.19275401306152343	0		5.58281396484375	0.14096803283691406	0		-0.36786660766601564	5.89221484375	0		
0.01693135452270508	-0.0034210820198059084	0		0.54287646484375	-2.3637451171875	0		-1.0707982177734374	-0.04278180313110352	0		-0.6957642822265625	-2.330788330078125	0		1.024044677734375	-0.5919003295898437	0		2.86026171875	-0.06893595123291016	0		4.5175517578125	0.1987363739013672	0		5.57871923828125	0.16026640319824217	0		-0.3679025573730469	5.89215771484375	0		
